# xmcd
#
# Track frame offsets: 
#        150
#        10501
#        20510
#        33288
#        45409
#        55398
#        66949
#        76369
#        89732
#        102992
#        114293
#        124202
#        135220
#        146930
#        158043
#        170122
#        180653
#        191080
#        200816
#        211119
#        220604
#        229126
#        239391
#        249762
#        260032
#        269184
#        278581
#        287692
#        295431
#        304342
#
# Disc length: 4182 seconds
#
# Revision: 0
# Processed by: cddbd v1.5.1PL0 Copyright (c) Steve Scherf et al.
# Submitted via: ExactAudioCopy v0.95a4
#
DISCID=c410541e
DTITLE=Various Artist - Kickin' The Hillbilly
DYEAR=1900
DGENRE=Country
TTITLE0=Johnny Rowland and Band - Sign On The Dotted Line
TTITLE1=Melvin Price and The Santa Fe Rangers - For You My Love
TTITLE2=Harry Fowler and His Tennessee Valley Boys - Carolina Swing
TTITLE3=Jimmy Williams and The Drifters - If You Could Love Me
TTITLE4=Steve La Rue With Spoke Little and Brothers - Money In Your Eyes
TTITLE5=Keith Buck and His Harmony Playboys - Leon Boogie
TTITLE6=Al Barkle and His Trailblazers - Would You Mind
TTITLE7=Rocky Bill Ford and The Sunset Wranglers - Willie Dum Dee
TTITLE8=Dave Dudley and His Country Caravan - Nashville Blues
TTITLE9="Doug" Lewis - Ice Worm Boogie
TTITLE10=Herrison Crump - Lonesome Long Gone Railroad Blues
TTITLE11=J. T. Starr With Dave Burnham and The Western Swingsters - Dark
TTITLE11=er Clouds Ahead
TTITLE12=Fred Henderson and The Valley Troubadours - That's Out
TTITLE13=Marshall Warder - Money
TTITLE14=Milt Dickey - Checkbook Baby
TTITLE15=Dave Farley - Flat Top Boogie
TTITLE16=Charlie Stewart and The Gem Tones - Hey! Castro
TTITLE17=Tony Douglas and Cowtown Hoedowner's - Old Blue Monday
TTITLE18=Wayne Carter - I've Got A Feeling
TTITLE19=Russell Brothers and The Wabash Valley Boys - You Cheated On Me
TTITLE20=Merle Ray and Southern Rockets - Kickin' Around Town
TTITLE21=Little Herby With The Westport Kids - The High Cost Of Living
TTITLE22=Luckey Leroy and The Rhythm Ramblers - Now Get Goin'
TTITLE23=Bill Johnson and The Kentucky Drifters - That's The Way I Like 
TTITLE23=You Best
TTITLE24=Cousin Keith Loyd - Dangerous Crossing
TTITLE25=Riley Crabtree - She Loves Me Better
TTITLE26=Chuck Carroll With Casey Clark and His Lazy Ranch Boys - Hey No
TTITLE26=w
TTITLE27=Al Bowers and The Tophands - Mathew Rock
TTITLE28=Jack Derrick and The Diamond D Ranch Boys - Waiting For You
TTITLE29=Rod Brown - Would You Baby Doll?
EXTD=
EXTT0=
EXTT1=
EXTT2=
EXTT3=
EXTT4=
EXTT5=
EXTT6=
EXTT7=
EXTT8=
EXTT9=
EXTT10=
EXTT11=
EXTT12=
EXTT13=
EXTT14=
EXTT15=
EXTT16=
EXTT17=
EXTT18=
EXTT19=
EXTT20=
EXTT21=
EXTT22=
EXTT23=
EXTT24=
EXTT25=
EXTT26=
EXTT27=
EXTT28=
EXTT29=
PLAYORDER=
